<svg width="141" height="64" viewBox="0 0 141 64" fill="none" xmlns="http://www.w3.org/2000/svg">
<g clip-path="url(#clip0_672_5272)">
<path d="M80.7454 2.79767C77.7721 1.01437 74.3205 0 70.597 0C66.8735 0 63.2914 1.0501 60.3073 2.88C59.4125 3.43146 58.9092 3.87262 58.9092 4.43961C58.9092 6.11417 62.8191 7.91301 69.7551 7.91301C76.691 7.91301 81.943 5.94175 81.943 4.04505C81.943 3.59301 81.5485 3.27612 80.7469 2.79767M83.6984 5.00194C83.7807 5.13243 83.8226 5.27223 83.8226 5.45864C83.8226 7.66291 77.0793 11.5635 66.3422 11.5635C58.4541 11.5635 56.9784 8.63689 56.9784 6.77437C56.9784 6.10951 57.2331 5.42757 57.7955 4.73631C57.8265 4.69437 57.8001 4.67883 57.7644 4.7099C56.7407 5.57825 55.7993 6.55534 54.9729 7.61165C54.5784 8.11029 54.3329 8.55301 54.3329 8.81709C54.3329 12.6742 64.0028 15.4718 73.0452 15.4718C82.6793 15.4718 86.9791 12.3262 86.9791 9.56117C86.9791 8.5732 86.5939 7.99534 85.6121 6.87845C84.9721 6.1499 84.3694 5.55806 83.7294 4.97553C83.6984 4.95068 83.6766 4.97087 83.6984 5.00194ZM52.6692 11.3289C52.0867 12.4831 51.4421 14.4326 51.251 15.4408C51.1671 15.8726 51.2028 16.0808 51.3551 16.4023C52.5729 18.9856 58.7275 23.1192 73.0887 23.1192C81.8498 23.1192 88.6552 20.9662 89.7582 17.0361C89.9617 16.3122 89.971 15.548 89.7116 14.5196C89.4195 13.3701 88.8743 12.0295 88.4114 11.0882C88.3958 11.0571 88.3694 11.0617 88.3741 11.099C88.5465 16.2516 74.1807 19.5744 66.9325 19.5744C59.0817 19.5744 52.531 16.4443 52.531 12.4924C52.531 12.1134 52.6087 11.7328 52.7081 11.3383C52.7174 11.3025 52.6863 11.2963 52.6708 11.3274M66.6094 27.795C56.4549 27.795 51.6657 23.0649 50.7974 19.8353C50.7865 19.7887 50.7555 19.7996 50.7555 19.8416C50.7555 20.9274 50.8642 22.3316 51.0522 23.2621C51.1407 23.7142 51.5104 24.4272 52.0494 24.9942C54.5085 27.5573 60.6382 31.1503 71.2556 31.1503C85.7209 31.1503 89.0281 26.3301 89.7022 24.7456C90.1853 23.6117 90.4354 21.5627 90.4354 19.8431C90.4354 19.4268 90.4246 19.0944 90.409 18.7666C90.409 18.7138 90.378 18.7091 90.3686 18.7604C89.6463 22.6392 77.2875 27.7965 66.6079 27.7965M71.9438 36.525C76.8261 36.525 82.1916 35.1938 85.3993 32.5577C86.277 31.84 87.1143 30.8847 87.863 29.6C88.2949 28.8621 88.7158 27.9829 89.0591 27.1192C89.0747 27.0773 89.0483 27.0571 89.0172 27.1037C86.0331 31.4967 77.3916 34.2369 68.4704 34.2369C62.1636 34.2369 55.3784 32.2206 52.7221 28.3666C52.6956 28.3309 52.6692 28.3464 52.6848 28.3868C55.1609 33.6482 62.6685 36.5235 71.9438 36.5235M58.4308 35.5107C61.7955 38.1157 66.016 39.68 70.597 39.68C75.6098 39.68 80.1799 37.819 83.6673 34.7619C83.7092 34.7247 83.689 34.6998 83.6471 34.7247C82.0813 35.7701 77.6215 38.052 70.597 38.052C64.4922 38.052 60.6351 36.6897 58.4556 35.4734C58.4153 35.4532 58.3982 35.4843 58.4308 35.5091" fill="#009FDB"/>
<path d="M20.4098 63.6054C20.6646 63.6054 20.8417 63.4283 20.8417 63.1736V50.5274H25.1353C25.39 50.5274 25.5655 50.3518 25.5655 50.0955V48.3511C25.5655 48.0963 25.3885 47.9192 25.1353 47.9192H13.7038C13.449 47.9192 13.2735 48.0963 13.2735 48.3511V50.0955C13.2735 50.3503 13.449 50.5274 13.7038 50.5274H17.9974V63.1736C17.9974 63.4283 18.1745 63.6054 18.4292 63.6054H20.4098ZM39.9749 63.0571C40.2296 63.332 40.0727 63.6054 39.7589 63.6054H37.2688C36.9349 63.6054 36.7593 63.5278 36.5434 63.2715L35.0537 61.6249C34.0549 62.9577 32.6615 63.9581 30.3485 63.9581C27.4855 63.9581 25.2316 62.2338 25.2316 59.273C25.2316 56.9988 26.4479 55.7825 28.2902 54.7635C27.3892 53.7243 26.9776 52.626 26.9776 51.666C26.9776 49.2334 28.6832 47.5682 31.251 47.5682C33.8188 47.5682 35.4855 49.1169 35.4855 51.4113C35.4855 53.3716 34.0735 54.4684 32.5838 55.2932L34.7803 57.6652L36.0153 55.5076C36.1721 55.2528 36.3492 55.155 36.6615 55.155H38.5628C38.8766 55.155 39.0537 55.3709 38.858 55.7049L36.6615 59.4687L39.9749 63.0571ZM31.2898 49.9992C30.2708 49.9992 29.6821 50.647 29.6821 51.5091C29.6821 52.1755 30.0347 52.7643 30.8393 53.6264C32.2312 52.8233 32.8199 52.3324 32.8199 51.4703C32.8199 50.6656 32.3104 49.9992 31.2898 49.9992ZM30.4075 61.4882C31.6611 61.4882 32.5046 60.8808 33.1912 59.8416L30.016 56.4287C28.7997 57.1153 28.0153 57.8004 28.0153 59.1736C28.0153 60.5468 29.1135 61.4866 30.4075 61.4866M15.178 63.0959C15.2758 63.3507 15.1189 63.6054 14.8456 63.6054H12.8059C12.5123 63.6054 12.3353 63.4687 12.2374 63.1938L11.0801 59.8617H4.74846L3.59118 63.1938C3.49332 63.4687 3.31623 63.6054 3.02264 63.6054H1.10109C0.846329 63.6054 0.669241 63.3507 0.767105 63.0959L6.07973 48.3138C6.17759 48.0388 6.35468 47.9223 6.64827 47.9223H9.27507C9.56866 47.9223 9.76439 48.0388 9.86225 48.3138L15.1764 63.0959M10.1791 57.2924L7.92516 50.8225L5.65099 57.2924H10.1807H10.1791ZM43.0723 63.6054C42.8176 63.6054 42.6421 63.4283 42.6421 63.1736V50.5274H38.3469C38.0921 50.5274 37.9166 50.3518 37.9166 50.0955V48.3511C37.9166 48.0963 38.0921 47.9192 38.3469 47.9192H49.7784C50.0331 47.9192 50.2087 48.0963 50.2087 48.3511V50.0955C50.2087 50.3503 50.0331 50.5274 49.7784 50.5274H45.4848V63.1736C45.4848 63.4283 45.3077 63.6054 45.0529 63.6054H43.0723Z" fill="black"/>
<path d="M93.8855 51.8617H91.905C91.6502 51.8617 91.4731 52.0388 91.4731 52.2936V63.172C91.4731 63.4268 91.6486 63.6039 91.9034 63.6039H93.884C94.1387 63.6039 94.3158 63.4268 94.3158 63.172V52.2936C94.3158 52.0388 94.1403 51.8617 93.8855 51.8617Z" fill="black"/>
<path d="M78.6187 51.8617H76.6382C76.3834 51.8617 76.2063 52.0388 76.2063 52.2936V58.7961C76.2063 60.7487 74.6389 61.4757 73.6541 61.4757C72.8774 61.4757 72.2995 61.2629 71.9189 60.8373C71.5384 60.4117 71.3473 59.7592 71.3473 58.8784V52.2936C71.3473 52.0388 71.1718 51.8617 70.917 51.8617H68.9364C68.6817 51.8617 68.5046 52.0388 68.5046 52.2936V59.1845C68.5046 60.6773 68.8401 61.8268 69.5127 62.633C70.1854 63.4392 71.5415 63.8416 72.7795 63.8416C73.4956 63.8416 74.2382 63.7748 74.8657 63.5278C75.4918 63.2823 75.8506 63.0524 76.2063 62.7573V63.172C76.2063 63.4268 76.3819 63.6039 76.6366 63.6039H78.6172C78.872 63.6039 79.049 63.4268 79.049 63.172V52.2936C79.049 52.0388 78.8735 51.8617 78.6187 51.8617Z" fill="black"/>
<path d="M64.0805 55.5806C64.8712 55.3118 65.3869 54.8598 65.8421 54.226C66.2972 53.5922 66.5255 52.8559 66.5255 52.0202C66.5255 50.692 66.0782 49.6761 65.1819 48.974C64.2855 48.2718 62.9869 47.9223 61.2844 47.9223H55.5228C55.2681 47.9223 55.0925 48.0979 55.0925 48.3526V63.1751C55.0925 63.4299 55.2681 63.607 55.5228 63.607L61.724 63.5977C62.7694 63.5977 63.6875 63.4268 64.4782 63.0819C65.2688 62.7386 65.8855 62.2384 66.3252 61.5814C66.7648 60.9243 66.9854 60.1553 66.9854 59.2746C66.9854 58.2897 66.7244 57.4757 66.2009 56.8342C65.6789 56.1926 65.0483 55.7748 64.0774 55.5806H64.0805ZM57.9368 50.5289H61.1694C62.2164 50.5289 62.6933 50.6951 63.0894 51.0276C63.4855 51.36 63.6844 51.84 63.6844 52.466C63.6844 53.092 63.4824 53.5783 63.0801 53.9231C62.6778 54.268 62.103 54.4404 61.171 54.4404H57.9384V50.5289H57.9368ZM63.5477 60.4567C63.1485 60.8047 62.6389 60.9786 61.6727 60.9786H57.9353V57.0299H61.4444C62.6545 57.0299 63.1003 57.1977 63.5182 57.5332C63.936 57.8687 64.1442 58.3596 64.1442 59.0043C64.1442 59.6489 63.9454 60.1087 63.5461 60.4567H63.5477Z" fill="black"/>
<path d="M117.202 52.233C116.416 51.7375 115.484 51.4843 114.434 51.4843C113.384 51.4843 112.446 51.7468 111.599 52.2656C110.754 52.7829 110.067 53.527 109.559 54.4761C109.051 55.4237 108.794 56.525 108.794 57.7522C108.794 58.9794 109.04 60.0047 109.525 60.9367C110.011 61.8718 110.718 62.6206 111.624 63.1612C112.528 63.7002 113.594 63.9736 114.793 63.9736C115.667 63.9736 116.464 63.8819 117.165 63.7017C117.749 63.5511 118.338 63.3196 118.919 63.0105L118.99 62.9701C119.217 62.8551 119.294 62.6175 119.178 62.3907L119.158 62.3518L118.501 61.0656L118.49 61.0439C118.375 60.8155 118.137 60.7379 117.91 60.8544L117.867 60.8792C117.452 61.1091 117 61.2831 116.668 61.3779C116.197 61.5099 115.673 61.6233 115.068 61.6233C114.117 61.6233 113.337 61.3701 112.752 60.8715C112.195 60.3992 111.838 59.7266 111.687 58.8722H119.193C119.448 58.8722 119.624 58.6967 119.624 58.4404L119.633 58.1965C119.646 57.892 119.652 57.4431 119.652 57.1697C119.652 56.0948 119.44 55.1177 119.023 54.268C118.603 53.4136 117.991 52.7285 117.205 52.233H117.202ZM111.689 56.4707C111.837 55.652 112.15 54.9918 112.624 54.5056C113.118 53.9977 113.735 53.7398 114.457 53.7398C115.228 53.7398 115.816 53.9883 116.254 54.4994C116.683 55.0012 116.904 55.6645 116.91 56.4707H111.689Z" fill="black"/>
<path d="M92.9085 47.5697C92.43 47.5697 92.0463 47.7095 91.7589 47.9891C91.4716 48.2687 91.3271 48.6322 91.3271 49.0781C91.3271 49.5239 91.47 49.8889 91.7589 50.167C92.0463 50.4466 92.4285 50.5849 92.9085 50.5849C93.3885 50.5849 93.7457 50.4451 94.0331 50.167C94.3205 49.8874 94.4634 49.5239 94.4634 49.0781C94.4634 48.6322 94.3205 48.2672 94.0331 47.9891C93.7457 47.7095 93.3714 47.5697 92.9085 47.5697Z" fill="black"/>
<path d="M81.2502 60.9911C81.3186 60.7783 81.522 60.6959 81.7271 60.7736L81.8964 60.845C83.0164 61.3033 84.0494 61.6295 85.07 61.6295C86.5488 61.6295 87.2681 61.2039 87.2681 60.3278C87.2681 59.9798 87.1391 59.7142 86.8735 59.5138C86.5892 59.301 86.0393 59.0897 85.2409 58.8862L84.5683 58.706C83.3271 58.3736 82.4215 57.9278 81.8778 57.3841C81.3248 56.8311 81.0436 56.073 81.0436 55.1301C81.0436 54.0489 81.4677 53.1588 82.3019 52.4862C83.1283 51.8198 84.2405 51.4827 85.609 51.4827C86.8052 51.4827 88.0121 51.7437 89.1989 52.2594L89.2626 52.2874C89.4941 52.379 89.6106 52.5981 89.5283 52.8388L89.1601 54.0893L89.1415 54.153C89.0685 54.3969 88.8494 54.515 88.6055 54.4419L88.5108 54.4031C87.5601 54.021 86.6001 53.8283 85.6525 53.8283C85.0405 53.8283 84.5605 53.9417 84.225 54.1639C83.9034 54.3783 83.7465 54.6656 83.7465 55.04C83.7465 55.3724 83.8568 55.6163 84.0852 55.7856C84.3321 55.9689 84.8106 56.1569 85.5081 56.3464L86.1791 56.525C87.5228 56.887 88.4999 57.3546 89.0809 57.9122C89.6727 58.4808 89.9725 59.2544 89.9725 60.2128C89.9725 61.3701 89.5376 62.2975 88.6801 62.9701C87.8319 63.635 86.67 63.972 85.2285 63.972C83.7869 63.972 82.3252 63.6505 81.0389 63.0167L80.9939 62.9934C80.7935 62.9002 80.7081 62.734 80.7764 62.5165L80.7888 62.4761L81.2285 61.0718L81.2518 60.9895L81.2502 60.9911Z" fill="black"/>
<path d="M121.287 60.9911C121.356 60.7783 121.559 60.6959 121.764 60.7736L121.934 60.845C123.054 61.3033 124.087 61.6295 125.107 61.6295C126.586 61.6295 127.305 61.2039 127.305 60.3278C127.305 59.9798 127.176 59.7142 126.911 59.5138C126.627 59.301 126.077 59.0897 125.278 58.8862L124.606 58.706C123.364 58.3736 122.459 57.9278 121.915 57.3841C121.362 56.8311 121.081 56.073 121.081 55.1301C121.081 54.0489 121.505 53.1588 122.339 52.4862C123.166 51.8198 124.278 51.4827 125.646 51.4827C126.842 51.4827 128.049 51.7437 129.236 52.2594L129.3 52.2874C129.531 52.379 129.648 52.5981 129.566 52.8388L129.197 54.0893L129.179 54.153C129.106 54.3969 128.887 54.515 128.643 54.4419L128.548 54.4031C127.597 54.021 126.637 53.8283 125.69 53.8283C125.078 53.8283 124.598 53.9417 124.262 54.1639C123.941 54.3783 123.784 54.6656 123.784 55.04C123.784 55.3724 123.894 55.6163 124.122 55.7856C124.369 55.9689 124.848 56.1569 125.545 56.3464L126.216 56.525C127.56 56.887 128.537 57.3546 129.118 57.9122C129.71 58.4808 130.01 59.2544 130.01 60.2128C130.01 61.3701 129.575 62.2975 128.717 62.9701C127.869 63.635 126.707 63.972 125.266 63.972C123.824 63.972 122.362 63.6505 121.076 63.0167L121.031 62.9934C120.831 62.9002 120.745 62.734 120.814 62.5165L120.826 62.4761L121.266 61.0718L121.289 60.9895L121.287 60.9911Z" fill="black"/>
<path d="M131.538 61.0175C131.607 60.8047 131.81 60.7223 132.015 60.8L132.185 60.8715C133.305 61.3297 134.338 61.6559 135.358 61.6559C136.837 61.6559 137.556 61.2303 137.556 60.3542C137.556 60.0062 137.427 59.7406 137.162 59.5402C136.877 59.3274 136.327 59.1161 135.529 58.9126L134.856 58.7324C133.615 58.4 132.71 57.9542 132.166 57.4105C131.613 56.8575 131.332 56.0994 131.332 55.1565C131.332 54.0753 131.756 53.1852 132.59 52.5126C133.416 51.8462 134.529 51.5091 135.897 51.5091C137.093 51.5091 138.3 51.7701 139.487 52.2858L139.551 52.3138C139.782 52.4054 139.899 52.6245 139.816 52.8652L139.448 54.1157L139.43 54.1794C139.357 54.4233 139.138 54.5414 138.894 54.4684L138.799 54.4295C137.848 54.0474 136.888 53.8548 135.941 53.8548C135.329 53.8548 134.849 53.9682 134.513 54.1903C134.192 54.4047 134.035 54.692 134.035 55.0664C134.035 55.3988 134.145 55.6427 134.373 55.812C134.62 55.9953 135.099 56.1833 135.796 56.3728L136.467 56.5515C137.811 56.9134 138.788 57.381 139.369 57.9386C139.961 58.5072 140.261 59.2808 140.261 60.2392C140.261 61.3965 139.826 62.3239 138.968 62.9965C138.12 63.6614 136.958 63.9984 135.517 63.9984C134.075 63.9984 132.613 63.6769 131.327 63.0431L131.282 63.0198C131.082 62.9266 130.996 62.7604 131.065 62.5429L131.077 62.5025L131.517 61.0983L131.54 61.0159L131.538 61.0175Z" fill="black"/>
<path d="M102.891 51.6256C102.174 51.6256 101.432 51.6924 100.804 51.9394C100.178 52.1849 99.8195 52.4148 99.4638 52.7099V52.2951C99.4638 52.0404 99.2883 51.8633 99.0335 51.8633H97.0529C96.7982 51.8633 96.6211 52.0404 96.6211 52.2951V63.1736C96.6211 63.4283 96.7966 63.6054 97.0514 63.6054H99.0319C99.2867 63.6054 99.4638 63.4283 99.4638 63.1736V56.6711C99.4638 54.7184 101.031 53.9915 102.016 53.9915C102.793 53.9915 103.371 54.2043 103.751 54.6299C104.132 55.0555 104.323 55.708 104.323 56.5887V63.1736C104.323 63.4283 104.498 63.6054 104.753 63.6054H106.734C106.988 63.6054 107.166 63.4283 107.166 63.1736V56.2827C107.166 54.7899 106.83 53.6404 106.157 52.8342C105.485 52.028 104.129 51.6256 102.891 51.6256Z" fill="black"/>
</g>
<defs>
<clipPath id="clip0_672_5272">
<rect width="139.518" height="64" fill="white" transform="translate(0.740723)"/>
</clipPath>
</defs>
</svg>
