<?xml version="1.0" encoding="UTF-8"?>
<svg id="Layer_1" data-name="Layer 1" xmlns="http://www.w3.org/2000/svg" viewBox="0 0 440.7 144">
  <defs>
    <style>
      .cls-1 {
        fill: #009fdb;
      }
      .text{
        fill: #FFFFFF
      }
    </style>
  </defs>
  <path class="text" d="m401.46,115.27c-1.4,0-2.37-.97-2.37-2.37V43.36h-23.62c-1.4,0-2.37-.97-2.37-2.37v-9.59c0-1.4.97-2.37,2.37-2.37h62.86c1.4,0,2.37.97,2.37,2.37v9.59c0,1.4-.97,2.37-2.37,2.37h-23.61v69.54c0,1.4-.97,2.37-2.37,2.37h-10.89Zm-180.88-34.72l-12.4-35.58-12.51,35.58h24.9Zm27.49,31.91c.54,1.4-.32,2.81-1.83,2.81h-11.21c-1.62,0-2.59-.75-3.13-2.27l-6.36-18.33h-34.82l-6.37,18.33c-.54,1.51-1.51,2.27-3.12,2.27h-10.56c-1.4,0-2.37-1.4-1.83-2.81l29.22-81.29c.54-1.51,1.51-2.15,3.12-2.15h14.45c1.62,0,2.69.64,3.23,2.15l29.22,81.29m83.74-8.84c6.9,0,11.53-3.34,15.31-9.05l-17.46-18.76c-6.69,3.78-11,7.55-11,15.1s6.04,12.72,13.16,12.72m4.85-63.18c-5.6,0-8.84,3.56-8.84,8.3,0,3.67,1.94,6.9,6.36,11.64,7.65-4.42,10.89-7.11,10.89-11.86,0-4.42-2.8-8.09-8.41-8.09m47.76,71.81c1.4,1.51.54,3.02-1.19,3.02h-13.69c-1.83,0-2.81-.43-3.99-1.84l-8.19-9.05c-5.5,7.33-13.16,12.83-25.88,12.83-15.74,0-28.14-9.49-28.14-25.77,0-12.51,6.69-19.19,16.82-24.8-4.96-5.72-7.22-11.75-7.22-17.03,0-13.37,9.38-22.54,23.5-22.54s23.29,8.52,23.29,21.13c0,10.78-7.76,16.81-15.96,21.35l12.08,13.05,6.79-11.86c.86-1.4,1.83-1.94,3.56-1.94h10.46c1.73,0,2.7,1.19,1.62,3.02l-12.08,20.7,18.22,19.73m-107.59,3.02c1.4,0,2.37-.97,2.37-2.37V43.36h23.61c1.4,0,2.37-.97,2.37-2.37v-9.59c0-1.4-.97-2.37-2.37-2.37h-62.86c-1.4,0-2.37.97-2.37,2.37v9.59c0,1.4.97,2.37,2.37,2.37h23.61v69.54c0,1.4.97,2.37,2.37,2.37h10.89Z"/>
  <path class="cls-1" d="m27.85,128.87c12.21,9.45,27.53,15.13,44.15,15.13,18.19,0,34.77-6.76,47.43-17.85.15-.13.08-.23-.07-.13-5.68,3.79-21.87,12.08-47.36,12.08-22.15,0-36.15-4.94-44.06-9.36-.15-.07-.21.04-.09.13m49.04,3.68c17.72,0,37.19-4.83,48.83-14.4,3.19-2.6,6.22-6.07,8.94-10.74,1.56-2.68,3.09-5.87,4.34-9,.06-.15-.04-.23-.15-.06-10.83,15.94-42.19,25.89-74.57,25.89-22.89,0-47.51-7.32-57.15-21.3-.1-.13-.19-.07-.13.08,8.98,19.09,36.23,29.53,69.89,29.53m-19.36-31.68C20.68,100.87,3.3,83.7.15,71.98c-.04-.17-.15-.13-.15.02,0,3.94.4,9.04,1.08,12.41.32,1.64,1.66,4.23,3.62,6.28,8.92,9.3,31.17,22.34,69.7,22.34,52.49,0,64.49-17.49,66.94-23.24,1.76-4.11,2.66-11.55,2.66-17.79,0-1.51-.04-2.72-.1-3.91,0-.19-.11-.21-.15-.02-2.62,14.08-47.47,32.79-86.23,32.79M6.94,41.11c-2.11,4.19-4.45,11.26-5.15,14.92-.3,1.57-.17,2.32.38,3.49,4.42,9.38,26.76,24.38,78.87,24.38,31.79,0,56.49-7.81,60.49-22.07.74-2.62.77-5.4-.17-9.13-1.06-4.17-3.04-9.04-4.72-12.45-.06-.11-.15-.1-.13.04.62,18.7-51.51,30.76-77.81,30.76-28.49,0-52.26-11.36-52.26-25.7,0-1.38.28-2.75.64-4.19.04-.13-.08-.15-.13-.04m112.61-22.96c.3.47.45.98.45,1.66,0,8-24.47,22.15-63.43,22.15-28.62,0-33.98-10.62-33.98-17.38,0-2.41.92-4.89,2.96-7.39.11-.15.02-.21-.11-.1-3.72,3.15-7.13,6.7-10.13,10.53-1.43,1.81-2.32,3.41-2.32,4.38,0,14,35.09,24.15,67.91,24.15,34.96,0,50.57-11.42,50.57-21.45,0-3.59-1.4-5.68-4.96-9.74-2.32-2.64-4.51-4.79-6.83-6.91-.11-.09-.19-.02-.11.1m-10.72-8C98.04,3.68,85.51,0,72,0s-26.51,3.81-37.34,10.45c-3.25,2-5.08,3.6-5.08,5.66,0,6.08,14.19,12.6,39.36,12.6s44.23-7.15,44.23-14.04c0-1.64-1.43-2.79-4.34-4.53"/>
</svg>