<?xml version="1.0" encoding="UTF-8"?>
<svg width="38px" height="38px" viewBox="0 0 38 38" version="1.1" xmlns="http://www.w3.org/2000/svg" xmlns:xlink="http://www.w3.org/1999/xlink">
    <title>avatar_dt</title>
    <defs>
        <circle id="path-1" cx="19" cy="19" r="19"></circle>
        <path d="M19.698316,20.8061545 C17.6102951,22.6358941 14.8749219,23.75 11.875,23.75 C9.13335938,23.75 6.60662326,22.8133594 4.59315104,21.2541059 C4.57451389,21.2387674 4.58375,21.2201302 4.60881944,21.2325 C5.91259549,21.9606684 8.22162326,22.7759201 11.875,22.7759201 C16.0792448,22.7759201 18.7491406,21.4098003 19.6857813,20.7843837 C19.7106858,20.7688802 19.7232205,20.7843837 19.698316,20.8061545 Z M22.9253472,16.2316406 C22.7200087,16.7483681 22.4678299,17.2741667 22.2095486,17.7160156 C21.7614323,18.4847569 21.2605382,19.0573958 20.7345747,19.4867101 C18.8144531,21.0646007 15.6030903,21.8610503 12.6810156,21.8610503 C7.12928819,21.8610503 2.63575521,20.1401649 1.15451389,16.9909809 C1.14511285,16.9660764 1.16078125,16.9568403 1.17628472,16.9784462 C2.76638021,19.2845052 6.82746528,20.4917969 10.6022309,20.4917969 C15.9423524,20.4917969 21.1142448,18.8517274 22.9004427,16.2224045 C22.9190799,16.1943663 22.9345833,16.206901 22.9253472,16.2316406 Z M23.7343316,11.2307812 C23.7437326,11.4268837 23.75,11.6259549 23.75,11.875 C23.75,12.9049913 23.6005729,14.1310851 23.3112847,14.8096094 C22.9067101,15.7586198 20.9275434,18.6434201 12.2701736,18.6434201 C5.91572917,18.6434201 2.24684896,16.4930556 0.77484375,14.9588715 C0.45125,14.6196094 0.230243056,14.1932639 0.177300347,13.9226128 C0.0653125,13.3656424 0,12.5253212 0,11.875 C0,11.8500955 0.0186371528,11.8438281 0.0249045139,11.8718663 C0.544600694,13.8043576 3.41059896,16.6362153 9.488125,16.6362153 C15.8800087,16.6362153 23.2769792,13.5492101 23.709592,11.2278125 C23.7158594,11.1966406 23.7343316,11.1997743 23.7343316,11.2307812 Z M22.5258854,6.62613394 L22.536441,6.63763021 C22.8133594,7.20086806 23.1400868,8.00375 23.3142535,8.69151042 C23.4699479,9.30769097 23.4636806,9.7650434 23.3422917,10.1976563 C22.6825694,12.5502257 18.6091146,13.8386632 13.3656424,13.8386632 C4.77045139,13.8386632 1.08606771,11.3647049 0.357899306,9.81798611 C0.267517361,9.62518229 0.245911458,9.50065972 0.295555556,9.24237847 C0.410677083,8.63856771 0.796614583,7.47168403 1.14511285,6.78078993 C1.15451389,6.76215278 1.17315104,6.76528646 1.16688368,6.78705729 C1.10783854,7.02356771 1.06116319,7.25067708 1.06116319,7.47795139 C1.06116319,9.84305556 4.98205729,11.7163368 9.68109375,11.7163368 C14.0190972,11.7163368 22.6172569,9.7277691 22.5146701,6.64389757 L22.5167593,6.62845518 L22.5258854,6.62613394 Z M4.2134809,2.83499132 C3.87735243,3.24880208 3.7249566,3.65651042 3.7249566,4.05481771 C3.7249566,5.16892361 4.60881944,6.92081597 9.32946181,6.92081597 C15.7554861,6.92081597 19.7916667,4.58688368 19.7916667,3.26743924 C19.7916667,3.15545139 19.7667622,3.07150174 19.7169531,2.99365451 C19.7045833,2.97501736 19.7169531,2.96248264 19.7355903,2.97815104 C20.1183941,3.32664931 20.4794271,3.68141493 20.8622309,4.11699653 C21.4503733,4.78611979 21.6806163,5.13148438 21.6806163,5.72276042 C21.6806163,7.37833333 19.1070399,9.26101563 13.3407378,9.26101563 C7.92920139,9.26101563 2.14096354,7.58697049 2.14096354,5.27777778 C2.14096354,5.11911458 2.28725694,4.85456597 2.52376736,4.55587674 C3.01855903,3.92402778 3.58179688,3.3390191 4.19484375,2.81932292 C4.21661458,2.80068576 4.23211806,2.81008681 4.2134809,2.83499132 Z M11.875,5.5067062e-14 C14.1032118,5.5067062e-14 16.1694618,0.606779514 17.9493924,1.67421007 C18.4286806,1.96052951 18.665191,2.15036458 18.665191,2.42101563 C18.665191,3.55689236 15.4785677,4.73631076 11.3708073,4.73631076 C7.21967014,4.73631076 4.87947049,3.6596441 4.87947049,2.65752604 C4.87947049,2.31842882 5.1812934,2.05388021 5.71649306,1.7240191 C7.5028559,0.628550347 9.63128472,5.5067062e-14 11.875,5.5067062e-14 Z" id="path-3"></path>
    </defs>
    <g id="Symbols" stroke="none" stroke-width="1" fill="none" fill-rule="evenodd">
        <g id="Avatars-/-Virtual-Assistant-/-DT">
            <mask id="mask-2" fill="white">
                <use xlink:href="#path-1"></use>
            </mask>
            <g id="↳-Surface-Elevation"></g>
            <g id="Brandmark" mask="url(#mask-2)">
                <g transform="translate(7.125000, 7.125000)">
                    <mask id="mask-4" fill="white">
                        <use xlink:href="#path-3"></use>
                    </mask>
                    <g id="Combined-Shape" stroke="none" fill="none"></g>
                    <g id="↳-Brand-Color" stroke="none" stroke-width="1" fill="none" fill-rule="evenodd" mask="url(#mask-4)">
                        <g transform="translate(0.000000, 0.000000)" fill="#009FDB" id="Rectangle-13">
                            <rect x="0" y="0" width="23.75" height="23.75"></rect>
                        </g>
                    </g>
                </g>
            </g>
        </g>
    </g>
</svg>